<?xml version="1.0" encoding="UTF-8" standalone="no"?>
<!-- Created with Inkscape (http://www.inkscape.org/) -->

<svg
   xmlns:dc="http://purl.org/dc/elements/1.1/"
   xmlns:cc="http://creativecommons.org/ns#"
   xmlns:rdf="http://www.w3.org/1999/02/22-rdf-syntax-ns#"
   xmlns:svg="http://www.w3.org/2000/svg"
   xmlns="http://www.w3.org/2000/svg"
   xmlns:sodipodi="http://sodipodi.sourceforge.net/DTD/sodipodi-0.dtd"
   xmlns:inkscape="http://www.inkscape.org/namespaces/inkscape"
   width="256"
   height="256"
   viewBox="0 0 67.733332 67.733335"
   version="1.1"
   id="svg8"
   inkscape:version="0.92.3 (2405546, 2018-03-11)"
   sodipodi:docname="logo.svg">
  <defs
     id="defs2" />
  <sodipodi:namedview
     id="base"
     pagecolor="#ffffff"
     bordercolor="#666666"
     borderopacity="1.0"
     inkscape:pageopacity="0.0"
     inkscape:pageshadow="2"
     inkscape:zoom="1.4142136"
     inkscape:cx="-91.283011"
     inkscape:cy="186.31367"
     inkscape:document-units="px"
     inkscape:current-layer="layer1"
     showgrid="false"
     units="px"
     inkscape:window-width="2560"
     inkscape:window-height="1405"
     inkscape:window-x="0"
     inkscape:window-y="35"
     inkscape:window-maximized="1"
     inkscape:snap-global="false"
     inkscape:measure-start="0,0"
     inkscape:measure-end="0,0" />
  <metadata
     id="metadata5">
    <rdf:RDF>
      <cc:Work
         rdf:about="">
        <dc:format>image/svg+xml</dc:format>
        <dc:type
           rdf:resource="http://purl.org/dc/dcmitype/StillImage" />
        <dc:title></dc:title>
      </cc:Work>
    </rdf:RDF>
  </metadata>
  <g
     inkscape:label="Layer 1"
     inkscape:groupmode="layer"
     id="layer1"
     transform="translate(0,-229.26665)">
    <path
       style="opacity:1;vector-effect:none;fill:#9f00b7;fill-opacity:1;stroke:none;stroke-width:10;stroke-linecap:butt;stroke-linejoin:miter;stroke-miterlimit:4;stroke-dasharray:none;stroke-dashoffset:0;stroke-opacity:1"
       d="m 66.783203,227.63867 v 3.37305 c 0,1.04956 0.103817,2.0725 0.300781,3.05664 0.196965,0.98413 0.488144,1.93016 0.863282,2.83008 0.375137,0.89992 0.834621,1.75387 1.36914,2.55078 0.534519,0.79691 1.14325,1.53583 1.81836,2.21094 0.675109,0.67511 1.415981,1.28579 2.21289,1.82031 0.79691,0.53452 1.650864,0.994 2.550782,1.36914 0.899916,0.37514 1.845943,0.66632 2.830078,0.86328 0.984134,0.19696 2.005126,0.29883 3.054687,0.29883 H 231.00977 c 1.04956,0 2.07055,-0.10187 3.05468,-0.29883 0.98414,-0.19696 1.93016,-0.48814 2.83008,-0.86328 0.89992,-0.37514 1.75387,-0.83462 2.55078,-1.36914 0.79691,-0.53452 1.53778,-1.1452 2.21289,-1.82031 0.67511,-0.67511 1.28384,-1.41403 1.81836,-2.21094 0.53452,-0.79691 0.99401,-1.65086 1.36914,-2.55078 0.37514,-0.89992 0.66632,-1.84595 0.86328,-2.83008 0.19697,-0.98414 0.30079,-2.00708 0.30079,-3.05664 V 81.876953 c 0,-1.049561 -0.10382,-2.072506 -0.30079,-3.056641 -0.19696,-0.984133 -0.48814,-1.93016 -0.86328,-2.830078 -0.37513,-0.899917 -0.83462,-1.753872 -1.36914,-2.550781 -0.53452,-0.796909 -1.14325,-1.537781 -1.81836,-2.212891 -0.67511,-0.675108 -1.41598,-1.28384 -2.21289,-1.818359 -0.79691,-0.534519 -1.65086,-0.994003 -2.55078,-1.369141 -0.89992,-0.375136 -1.84594,-0.666317 -2.83008,-0.863281 -0.98413,-0.196964 -2.00512,-0.298828 -3.05468,-0.298828 h -3.38086 V 202.64453 c 0,1.72044 -0.17753,3.40107 -0.51172,5.02539 -0.3342,1.62433 -0.82659,3.19132 -1.46094,4.68555 -0.63435,1.49423 -1.41008,2.91595 -2.31055,4.24609 -0.90047,1.33015 -1.92605,2.56909 -3.05859,3.70117 -1.13254,1.13209 -2.37255,2.15661 -3.70313,3.05665 -1.33057,0.90003 -2.75152,1.67458 -4.24609,2.30859 -1.49457,0.63401 -3.06102,1.12694 -4.68555,1.46094 -1.62452,0.33399 -3.3069,0.50976 -5.02734,0.50976 z"
       id="path1664"
       transform="matrix(0.26458333,0,0,0.26458333,0,229.26665)"
       inkscape:connector-curvature="0" />
    <path
       style="opacity:1;vector-effect:none;fill:#ffd700;fill-opacity:1;stroke:none;stroke-width:10;stroke-linecap:butt;stroke-linejoin:miter;stroke-miterlimit:4;stroke-dasharray:none;stroke-dashoffset:0;stroke-opacity:1"
       d="m 38.392578,199.26953 v 3.375 c 0,1.04956 0.103817,2.07055 0.300781,3.05469 0.196965,0.98413 0.488144,1.93016 0.863282,2.83008 0.375137,0.89991 0.834621,1.75387 1.36914,2.55078 0.534519,0.79691 1.14325,1.53778 1.81836,2.21289 0.675109,0.67511 1.415981,1.28384 2.21289,1.81836 0.79691,0.53452 1.650864,0.994 2.550781,1.36914 0.899918,0.37514 1.845944,0.66632 2.830079,0.86328 0.984134,0.19696 2.005126,0.30078 3.054687,0.30078 H 202.625 c 1.04956,0 2.07251,-0.10382 3.05664,-0.30078 0.98413,-0.19696 1.93016,-0.48814 2.83008,-0.86328 0.89992,-0.37514 1.75192,-0.83462 2.54883,-1.36914 0.79691,-0.53452 1.53778,-1.14325 2.21289,-1.81836 0.67511,-0.67511 1.28579,-1.41598 1.82031,-2.21289 0.53452,-0.79691 0.994,-1.65087 1.36914,-2.55078 0.37514,-0.89992 0.66632,-1.84595 0.86328,-2.83008 0.19697,-0.98414 0.29883,-2.00513 0.29883,-3.05469 V 53.507812 c 0,-1.04956 -0.10186,-2.070552 -0.29883,-3.054687 -0.19696,-0.984135 -0.48814,-1.932114 -0.86328,-2.832031 -0.37514,-0.899918 -0.83462,-1.751919 -1.36914,-2.548828 -0.53452,-0.79691 -1.1452,-1.537781 -1.82031,-2.212891 -0.67511,-0.67511 -1.41598,-1.285793 -2.21289,-1.820313 -0.79691,-0.534519 -1.64891,-0.994003 -2.54883,-1.36914 -0.89992,-0.375137 -1.84595,-0.666317 -2.83008,-0.863281 -0.98413,-0.196965 -2.00708,-0.298829 -3.05664,-0.298829 h -3.38086 V 174.26758 c 0,1.72044 -0.17558,3.40086 -0.50976,5.02539 -0.3342,1.62453 -0.82659,3.19293 -1.46094,4.6875 -0.63436,1.49457 -1.41008,2.91551 -2.31055,4.24609 -0.90047,1.33058 -1.92605,2.57058 -3.05859,3.70313 -1.13255,1.13254 -2.37255,2.15812 -3.70313,3.05859 -1.33058,0.90047 -2.75152,1.6762 -4.24609,2.31055 -1.49457,0.63435 -3.06298,1.12674 -4.6875,1.46094 -1.62453,0.33419 -3.30495,0.50976 -5.02539,0.50976 z"
       id="path1658"
       transform="matrix(0.26458333,0,0,0.26458333,0,229.26665)"
       inkscape:connector-curvature="0" />
    <path
       style="opacity:1;vector-effect:none;fill:#fc6600;fill-opacity:1;stroke:none;stroke-width:10;stroke-linecap:butt;stroke-linejoin:miter;stroke-miterlimit:4;stroke-dasharray:none;stroke-dashoffset:0;stroke-opacity:1"
       d="m 25.009766,10.130859 c -1.049561,0 -2.070553,0.103817 -3.054688,0.300782 -0.984135,0.196964 -1.932114,0.488144 -2.832031,0.863281 -0.899918,0.375137 -1.751919,0.834621 -2.548828,1.36914 -0.79691,0.53452 -1.537781,1.14325 -2.212891,1.81836 -0.67511,0.67511 -1.28384,1.415981 -1.818359,2.21289 -0.534519,0.79691 -0.995957,1.650864 -1.371094,2.550782 -0.375137,0.899917 -0.664364,1.845943 -0.861328,2.830078 -0.196964,0.984135 -0.300781,2.005127 -0.300781,3.054687 V 174.26758 c 0,1.04956 0.103817,2.07055 0.300781,3.05469 0.196964,0.98413 0.486191,1.93211 0.861328,2.83203 0.375137,0.89991 0.836575,1.75192 1.371094,2.54882 0.534519,0.79691 1.143249,1.53779 1.818359,2.2129 0.67511,0.67511 1.415981,1.28579 2.212891,1.82031 0.796909,0.53452 1.64891,0.994 2.548828,1.36914 0.899917,0.37514 1.847896,0.66436 2.832031,0.86133 0.984135,0.19696 2.005127,0.30078 3.054688,0.30078 H 174.24219 c 1.04956,0 2.07055,-0.10382 3.05469,-0.30078 0.98413,-0.19697 1.93211,-0.48619 2.83203,-0.86133 0.89991,-0.37514 1.75192,-0.83462 2.54882,-1.36914 0.79691,-0.53452 1.53779,-1.1452 2.21289,-1.82031 0.67511,-0.67511 1.28385,-1.41599 1.81836,-2.2129 0.53452,-0.7969 0.99596,-1.64891 1.3711,-2.54882 0.37514,-0.89992 0.66436,-1.8479 0.86133,-2.83203 0.19696,-0.98414 0.30078,-2.00513 0.30078,-3.05469 V 25.130859 c 0,-1.04956 -0.10382,-2.070552 -0.30078,-3.054687 -0.19697,-0.984135 -0.48619,-1.930161 -0.86133,-2.830078 -0.37514,-0.899918 -0.83658,-1.753872 -1.3711,-2.550782 -0.53451,-0.796909 -1.14325,-1.53778 -1.81836,-2.21289 -0.6751,-0.67511 -1.41598,-1.28384 -2.21289,-1.81836 -0.7969,-0.534519 -1.64891,-0.994003 -2.54882,-1.36914 -0.89992,-0.375137 -1.8479,-0.666317 -2.83203,-0.863281 -0.98414,-0.196965 -2.00513,-0.300782 -3.05469,-0.300782 z"
       id="path1635"
       transform="matrix(0.26458333,0,0,0.26458333,0,229.26665)"
       inkscape:connector-curvature="0" />
  </g>
</svg>
