<?xml version="1.0" encoding="utf-8"?>
<!-- Generator: Adobe Illustrator 16.0.0, SVG Export Plug-In . SVG Version: 6.00 Build 0)  -->
<!DOCTYPE svg PUBLIC "-//W3C//DTD SVG 1.1//EN" "http://www.w3.org/Graphics/SVG/1.1/DTD/svg11.dtd">
<svg version="1.1" id="Layer_1" xmlns="http://www.w3.org/2000/svg" xmlns:xlink="http://www.w3.org/1999/xlink" x="0px" y="0px"
    width="508px" height="145px" viewBox="0 0 508 145" enable-background="new 0 0 508 145" xml:space="preserve">
<g>
   <defs>
      <rect id="SVGID_1_" width="508" height="145"/>
   </defs>
   <clipPath id="SVGID_2_">
      <use xlink:href="#SVGID_1_"  overflow="visible"/>
   </clipPath>
   <path clip-path="url(#SVGID_2_)" fill="#EE2E4D" d="M50.319,14.706l5.009,12.277l18.233-16.948c0,0-3.333-0.365-11.751,1.255
      C53.392,12.91,50.319,14.706,50.319,14.706"/>
   <path clip-path="url(#SVGID_2_)" fill="#F04D2B" d="M98.074,14.732l-5.062,12.251L74.78,10.036c0,0,3.332-0.365,11.751,1.255
      C94.949,12.909,98.074,14.732,98.074,14.732"/>
   <polygon clip-path="url(#SVGID_2_)" fill="#EF3832" points="74.17,11.657 56.83,27.809 74.17,37.718 91.511,27.809   "/>
   <polygon clip-path="url(#SVGID_2_)" fill="#F47F4C" points="98.383,47.526 76.104,37.857 93.101,28.482  "/>
   <path clip-path="url(#SVGID_2_)" fill="#62C3AC" d="M98.138,133.752l-5.009-12.277l-18.233,16.947c0,0,3.332,0.365,11.751-1.254
      C95.065,135.548,98.138,133.752,98.138,133.752"/>
   <path clip-path="url(#SVGID_2_)" fill="#21C4F2" d="M50.384,133.726l5.062-12.251l18.232,16.947c0,0-3.332,0.366-11.751-1.254
      C53.509,135.548,50.384,133.726,50.384,133.726"/>
   <polygon clip-path="url(#SVGID_2_)" fill="#5FC8D8" points="74.287,136.801 91.628,120.648 74.287,110.74 56.946,120.648   "/>
   <polygon clip-path="url(#SVGID_2_)" fill="#48B5E7" points="50.075,100.932 72.354,110.602 55.357,119.977  "/>
   <path clip-path="url(#SVGID_2_)" fill="#9E58A3" d="M15.233,49.046l12.224,5.14l0.907-24.877c0,0-2.614,2.099-7.421,9.196
      C16.135,45.603,15.233,49.046,15.233,49.046"/>
   <path clip-path="url(#SVGID_2_)" fill="#ED3493" d="M49.02,15.297l5.083,12.242l-24.876,0.908c0,0,2.098-2.614,9.196-7.421
      C45.521,16.218,49.02,15.297,49.02,15.297"/>
   <polygon clip-path="url(#SVGID_2_)" fill="#B9529F" points="29.942,30.025 29.102,53.708 48.371,48.453 53.625,29.184   "/>
   <polygon clip-path="url(#SVGID_2_)" fill="#EF5082" points="72.426,38.268 49.835,47.185 55.225,28.536  "/>
   <path clip-path="url(#SVGID_2_)" fill="#63BC46" d="M133.224,99.411L121,94.271l-0.907,24.877c0,0,2.614-2.098,7.422-9.196
      C132.322,102.854,133.224,99.411,133.224,99.411"/>
   <path clip-path="url(#SVGID_2_)" fill="#67BF6D" d="M99.438,133.16l-5.083-12.242l24.876-0.908c0,0-2.099,2.614-9.197,7.422
      C102.938,132.238,99.438,133.16,99.438,133.16"/>
   <polygon clip-path="url(#SVGID_2_)" fill="#67BD45" points="118.515,118.433 119.356,94.75 100.087,100.005 94.832,119.273    "/>
   <polygon clip-path="url(#SVGID_2_)" fill="#6CC49E" points="76.031,110.189 98.622,101.273 93.232,119.922  "/>
   <path clip-path="url(#SVGID_2_)" fill="#3054A5" d="M14.706,98.139l12.277-5.01L10.035,74.896c0,0-0.365,3.332,1.255,11.75
      C12.91,95.065,14.706,98.139,14.706,98.139"/>
   <path clip-path="url(#SVGID_2_)" fill="#764FA0" d="M14.732,50.384l12.251,5.062L10.035,73.678c0,0-0.365-3.332,1.255-11.751
      C12.909,53.509,14.732,50.384,14.732,50.384"/>
   <polygon clip-path="url(#SVGID_2_)" fill="#5650A2" points="11.657,74.287 27.809,91.628 37.718,74.287 27.809,56.946   "/>
   <polygon clip-path="url(#SVGID_2_)" fill="#9D62A8" points="47.526,50.075 37.857,72.354 28.482,55.357  "/>
   <path clip-path="url(#SVGID_2_)" fill="#B5D334" d="M133.751,50.319l-12.277,5.009l16.948,18.233c0,0,0.365-3.332-1.254-11.751
      C135.547,53.392,133.751,50.319,133.751,50.319"/>
   <path clip-path="url(#SVGID_2_)" fill="#6ABD45" d="M133.726,98.074l-12.251-5.063l16.948-18.231c0,0,0.365,3.332-1.255,11.751
      C135.547,94.948,133.726,98.074,133.726,98.074"/>
   <polygon clip-path="url(#SVGID_2_)" fill="#8CC63F" points="136.801,74.17 120.649,56.83 110.74,74.17 120.649,91.512   "/>
   <polygon clip-path="url(#SVGID_2_)" fill="#74C044" points="100.932,98.383 110.601,76.104 119.977,93.102  "/>
   <path clip-path="url(#SVGID_2_)" fill="#3572B9" d="M49.046,133.225L54.186,121l-24.877-0.907c0,0,2.099,2.614,9.196,7.422
      C45.603,132.322,49.046,133.225,49.046,133.225"/>
   <path clip-path="url(#SVGID_2_)" fill="#2156A7" d="M15.297,99.438l12.242-5.082l0.908,24.876c0,0-2.614-2.099-7.421-9.196
      C16.218,102.938,15.297,99.438,15.297,99.438"/>
   <polygon clip-path="url(#SVGID_2_)" fill="#305FAC" points="30.025,118.516 53.708,119.355 48.453,100.088 29.184,94.832   "/>
   <polygon clip-path="url(#SVGID_2_)" fill="#4159A8" points="38.268,76.031 47.185,98.622 28.536,93.232  "/>
   <path clip-path="url(#SVGID_2_)" fill="#F6852A" d="M99.411,15.233l-5.139,12.224l24.876,0.907c0,0-2.098-2.614-9.196-7.422
      C102.854,16.135,99.411,15.233,99.411,15.233"/>
   <path clip-path="url(#SVGID_2_)" fill="#EFE927" d="M133.16,49.019l-12.242,5.083l-0.908-24.876c0,0,2.614,2.099,7.421,9.197
      C132.239,45.52,133.16,49.019,133.16,49.019"/>
   <polygon clip-path="url(#SVGID_2_)" fill="#FFC930" points="118.433,29.942 94.75,29.102 100.004,48.371 119.272,53.625    "/>
   <polygon clip-path="url(#SVGID_2_)" fill="#E2E54A" points="110.19,72.426 101.273,49.835 119.922,55.225   "/>
</g>
<g fill="#ffffff">
   <path d="M161.704,50.49c1.404-0.288,3.959-0.504,6.443-0.504c3.275,0,5.291,0.396,6.947,1.548c1.512,0.9,2.52,2.483,2.52,4.535
      c0,2.232-1.404,4.284-4.032,5.255v0.072c2.556,0.648,4.896,2.664,4.896,6.011c0,2.16-0.936,3.852-2.34,5.003
      c-1.728,1.512-4.571,2.268-8.999,2.268c-2.448,0-4.32-0.18-5.436-0.324V50.49z M166.096,60.064h2.268
      c3.06,0,4.788-1.44,4.788-3.491c0-2.268-1.728-3.312-4.536-3.312c-1.296,0-2.052,0.072-2.52,0.18V60.064z M166.096,71.223
      c0.576,0.072,1.332,0.108,2.339,0.108c2.844,0,5.364-1.08,5.364-4.067c0-2.808-2.448-3.959-5.507-3.959h-2.196V71.223z"/>
   <path d="M186.975,52.001c0,1.332-0.972,2.376-2.52,2.376c-1.476,0-2.448-1.044-2.448-2.376c0-1.368,1.008-2.412,2.484-2.412
      C186.003,49.59,186.939,50.634,186.975,52.001z M182.259,74.427v-17.53h4.464v17.53H182.259z"/>
   <path d="M208.142,65.5c0,6.443-4.535,9.322-8.999,9.322c-4.968,0-8.783-3.419-8.783-9.034c0-5.76,3.78-9.287,9.071-9.287
      C204.65,56.501,208.142,60.172,208.142,65.5z M194.931,65.68c0,3.384,1.656,5.939,4.355,5.939c2.52,0,4.284-2.484,4.284-6.011
      c0-2.736-1.224-5.867-4.248-5.867C196.191,59.741,194.931,62.764,194.931,65.68z"/>
   <path d="M227.941,48.87v20.625c0,1.799,0.072,3.744,0.144,4.931h-3.959l-0.18-2.771h-0.072c-1.044,1.943-3.167,3.167-5.723,3.167
      c-4.176,0-7.487-3.563-7.487-8.962c-0.036-5.867,3.636-9.359,7.847-9.359c2.412,0,4.14,1.008,4.931,2.304h0.072V48.87H227.941z
       M223.514,64.204c0-0.36-0.036-0.792-0.108-1.152c-0.396-1.728-1.8-3.132-3.816-3.132c-2.843,0-4.427,2.52-4.427,5.795
      c0,3.204,1.584,5.543,4.392,5.543c1.8,0,3.383-1.224,3.815-3.132c0.108-0.396,0.144-0.828,0.144-1.296V64.204z"/>
   <path d="M242.558,74.427l-0.288-1.944h-0.108c-1.08,1.368-2.916,2.339-5.183,2.339c-3.527,0-5.507-2.555-5.507-5.219
      c0-4.428,3.923-6.659,10.403-6.624v-0.288c0-1.152-0.468-3.06-3.563-3.06c-1.728,0-3.528,0.54-4.716,1.295l-0.864-2.879
      c1.296-0.792,3.563-1.548,6.335-1.548c5.615,0,7.235,3.563,7.235,7.379v6.335c0,1.584,0.072,3.131,0.252,4.211H242.558z
       M241.982,65.86c-3.132-0.072-6.119,0.612-6.119,3.275c0,1.728,1.116,2.52,2.52,2.52c1.764,0,3.06-1.152,3.456-2.412
      c0.108-0.324,0.144-0.684,0.144-0.972V65.86z"/>
   <path d="M255.843,51.894v5.003h4.211v3.312h-4.211v7.739c0,2.124,0.576,3.239,2.268,3.239c0.756,0,1.332-0.108,1.728-0.216
      l0.072,3.383c-0.647,0.252-1.8,0.433-3.203,0.433c-1.62,0-2.988-0.54-3.816-1.44c-0.936-1.008-1.368-2.591-1.368-4.895v-8.243
      h-2.52v-3.312h2.52v-3.959L255.843,51.894z"/>
   <path d="M273.266,74.427l-0.288-1.944h-0.107c-1.08,1.368-2.916,2.339-5.184,2.339c-3.527,0-5.507-2.555-5.507-5.219
      c0-4.428,3.923-6.659,10.402-6.624v-0.288c0-1.152-0.468-3.06-3.563-3.06c-1.728,0-3.527,0.54-4.716,1.295l-0.863-2.879
      c1.296-0.792,3.563-1.548,6.335-1.548c5.615,0,7.235,3.563,7.235,7.379v6.335c0,1.584,0.071,3.131,0.252,4.211H273.266z
       M272.689,65.86c-3.131-0.072-6.119,0.612-6.119,3.275c0,1.728,1.116,2.52,2.52,2.52c1.765,0,3.061-1.152,3.456-2.412
      c0.108-0.324,0.144-0.684,0.144-0.972V65.86z"/>
   <path d="M309.804,64.528c-0.144-3.131-0.324-6.911-0.288-10.187h-0.107c-0.792,2.952-1.8,6.227-2.88,9.287l-3.527,10.511h-3.42
      l-3.239-10.367c-0.937-3.096-1.8-6.407-2.448-9.431h-0.072c-0.107,3.167-0.252,7.019-0.432,10.331l-0.54,9.755h-4.14l1.62-24.261
      h5.831l3.168,9.754c0.864,2.844,1.62,5.724,2.231,8.423h0.108c0.647-2.628,1.476-5.616,2.411-8.459l3.348-9.719h5.76l1.403,24.261
      h-4.319L309.804,64.528z"/>
   <path d="M323.953,52.001c0,1.332-0.972,2.376-2.52,2.376c-1.476,0-2.447-1.044-2.447-2.376c0-1.368,1.008-2.412,2.483-2.412
      C322.981,49.59,323.917,50.634,323.953,52.001z M319.238,74.427v-17.53h4.463v17.53H319.238z"/>
   <path d="M328.454,62.116c0-2.016-0.036-3.708-0.145-5.219h3.888l0.216,2.627h0.108c0.756-1.368,2.663-3.023,5.579-3.023
      c3.06,0,6.228,1.98,6.228,7.523v10.403H339.9v-9.899c0-2.52-0.936-4.427-3.348-4.427c-1.764,0-2.987,1.26-3.455,2.592
      c-0.145,0.396-0.181,0.936-0.181,1.439v10.295h-4.463V62.116z"/>
   <path d="M353.761,52.001c0,1.332-0.972,2.376-2.52,2.376c-1.476,0-2.447-1.044-2.447-2.376c0-1.368,1.008-2.412,2.483-2.412
      C352.789,49.59,353.725,50.634,353.761,52.001z M349.046,74.427v-17.53h4.463v17.53H349.046z"/>
   <path d="M358.262,62.116c0-2.016-0.036-3.708-0.145-5.219h3.888l0.216,2.627h0.108c0.756-1.368,2.663-3.023,5.579-3.023
      c3.06,0,6.228,1.98,6.228,7.523v10.403h-4.428v-9.899c0-2.52-0.936-4.427-3.348-4.427c-1.764,0-2.987,1.26-3.455,2.592
      c-0.145,0.396-0.181,0.936-0.181,1.439v10.295h-4.463V62.116z"/>
   <path d="M394.871,56.897c-0.072,1.188-0.144,2.627-0.144,5.04v9.935c0,3.672-0.756,6.299-2.592,7.955
      c-1.836,1.62-4.355,2.124-6.768,2.124c-2.231,0-4.607-0.469-6.119-1.404l0.972-3.348c1.116,0.648,2.988,1.332,5.111,1.332
      c2.88,0,5.04-1.512,5.04-5.291v-1.512H390.3c-1.008,1.548-2.808,2.591-5.111,2.591c-4.355,0-7.451-3.599-7.451-8.566
      c0-5.759,3.743-9.251,7.955-9.251c2.664,0,4.247,1.296,5.075,2.736h0.072l0.18-2.34H394.871z M390.3,63.916
      c0-0.396-0.036-0.828-0.144-1.188c-0.469-1.62-1.729-2.843-3.6-2.843c-2.484,0-4.32,2.16-4.32,5.723
      c0,2.988,1.513,5.399,4.284,5.399c1.655,0,3.096-1.08,3.6-2.664c0.107-0.468,0.18-1.08,0.18-1.584V63.916z"/>
   <path d="M426.55,73.311c-1.548,0.576-4.571,1.368-7.811,1.368c-4.104,0-7.199-1.044-9.503-3.24c-2.16-2.052-3.42-5.255-3.384-8.927
      c0-7.667,5.472-12.598,13.498-12.598c2.988,0,5.327,0.612,6.443,1.152l-0.972,3.563c-1.332-0.576-2.952-1.044-5.508-1.044
      c-5.183,0-8.818,3.06-8.818,8.711c0,5.507,3.384,8.783,8.423,8.783c1.584,0,2.771-0.216,3.348-0.504v-6.047h-4.283v-3.491h8.566
      V73.311z"/>
   <path d="M431.017,62.548c0-2.376-0.036-4.067-0.145-5.651h3.852l0.145,3.348h0.144c0.864-2.484,2.916-3.744,4.787-3.744
      c0.433,0,0.685,0.036,1.044,0.108v4.176c-0.359-0.072-0.756-0.144-1.296-0.144c-2.123,0-3.563,1.368-3.959,3.348
      c-0.072,0.396-0.145,0.864-0.145,1.368v9.071h-4.427V62.548z"/>
   <path d="M460.21,65.5c0,6.443-4.536,9.322-8.999,9.322c-4.968,0-8.783-3.419-8.783-9.034c0-5.76,3.779-9.287,9.071-9.287
      C456.718,56.501,460.21,60.172,460.21,65.5z M446.999,65.68c0,3.384,1.656,5.939,4.355,5.939c2.52,0,4.283-2.484,4.283-6.011
      c0-2.736-1.224-5.867-4.247-5.867C448.259,59.741,446.999,62.764,446.999,65.68z"/>
   <path d="M479.541,69.171c0,2.088,0.072,3.815,0.145,5.255h-3.888l-0.216-2.664h-0.072c-0.756,1.259-2.483,3.059-5.615,3.059
      c-3.203,0-6.119-1.907-6.119-7.63V56.897h4.428v9.539c0,2.916,0.936,4.788,3.275,4.788c1.764,0,2.916-1.26,3.384-2.375
      c0.144-0.396,0.252-0.864,0.252-1.368V56.897h4.427V69.171z"/>
   <path d="M484.331,62.728c0-2.304-0.072-4.175-0.145-5.831h3.888l0.216,2.7h0.072c1.296-1.98,3.348-3.096,6.011-3.096
      c4.032,0,7.38,3.456,7.38,8.927c0,6.335-3.996,9.395-7.991,9.395c-2.196,0-4.031-0.936-4.932-2.339h-0.072v9.071h-4.427V62.728z
       M488.758,67.083c0,0.432,0.036,0.828,0.145,1.224c0.432,1.8,2.016,3.096,3.888,3.096c2.808,0,4.463-2.34,4.463-5.795
      c0-3.096-1.512-5.615-4.355-5.615c-1.836,0-3.527,1.332-3.959,3.275c-0.108,0.36-0.181,0.756-0.181,1.116V67.083z"/>
</g>
<g fill="#ffffff">
   <path d="M160.853,83.749c0.936-0.192,2.64-0.337,4.296-0.337c2.184,0,3.528,0.265,4.632,1.032c1.008,0.601,1.68,1.656,1.68,3.024
      c0,1.488-0.936,2.856-2.688,3.505v0.048c1.704,0.432,3.264,1.775,3.264,4.008c0,1.44-0.624,2.568-1.56,3.337
      c-1.152,1.008-3.048,1.512-6,1.512c-1.632,0-2.88-0.12-3.625-0.216V83.749z M163.781,90.133h1.512c2.04,0,3.192-0.96,3.192-2.328
      c0-1.512-1.152-2.208-3.024-2.208c-0.864,0-1.368,0.048-1.68,0.12V90.133z M163.781,97.574c0.384,0.048,0.888,0.071,1.56,0.071
      c1.896,0,3.577-0.72,3.577-2.712c0-1.872-1.632-2.641-3.672-2.641h-1.464V97.574z"/>
   <path d="M177.701,84.757c0,0.888-0.648,1.584-1.68,1.584c-0.984,0-1.632-0.696-1.632-1.584c0-0.912,0.672-1.608,1.656-1.608
      C177.053,83.148,177.677,83.845,177.701,84.757z M174.556,99.71V88.021h2.977V99.71H174.556z"/>
   <path d="M182.789,94.693c0.072,2.112,1.728,3.024,3.6,3.024c1.368,0,2.353-0.192,3.24-0.528l0.432,2.04
      c-1.008,0.408-2.4,0.721-4.08,0.721c-3.792,0-6.025-2.328-6.025-5.904c0-3.24,1.968-6.289,5.713-6.289
      c3.792,0,5.04,3.12,5.04,5.688c0,0.552-0.048,0.984-0.096,1.248H182.789z M187.925,92.629c0.024-1.08-0.456-2.855-2.424-2.855
      c-1.824,0-2.592,1.656-2.712,2.855H187.925z"/>
   <path d="M193.084,82.669h2.977V99.71h-2.977V82.669z"/>
   <path d="M201.34,94.693c0.072,2.112,1.728,3.024,3.6,3.024c1.368,0,2.353-0.192,3.24-0.528l0.432,2.04
      c-1.008,0.408-2.4,0.721-4.08,0.721c-3.792,0-6.025-2.328-6.025-5.904c0-3.24,1.968-6.289,5.713-6.289
      c3.792,0,5.04,3.12,5.04,5.688c0,0.552-0.048,0.984-0.096,1.248H201.34z M206.476,92.629c0.024-1.08-0.456-2.855-2.424-2.855
      c-1.824,0-2.592,1.656-2.712,2.855H206.476z"/>
   <path d="M211.972,99.71v-9.48h-1.584v-2.209h1.584v-0.504c0-1.512,0.408-3.024,1.416-3.984c0.864-0.815,2.04-1.128,3.048-1.128
      c0.792,0,1.416,0.12,1.896,0.288l-0.216,2.28c-0.313-0.12-0.72-0.216-1.249-0.216c-1.464,0-1.968,1.224-1.968,2.664v0.6h2.568
      v2.209h-2.544v9.48H211.972z"/>
   <path d="M221.139,94.693c0.072,2.112,1.728,3.024,3.6,3.024c1.368,0,2.353-0.192,3.24-0.528l0.432,2.04
      c-1.008,0.408-2.4,0.721-4.08,0.721c-3.792,0-6.025-2.328-6.025-5.904c0-3.24,1.968-6.289,5.713-6.289
      c3.792,0,5.04,3.12,5.04,5.688c0,0.552-0.048,0.984-0.096,1.248H221.139z M226.275,92.629c0.024-1.08-0.456-2.855-2.424-2.855
      c-1.824,0-2.592,1.656-2.712,2.855H226.275z"/>
   <path d="M231.435,82.669h2.977V99.71h-2.977V82.669z"/>
   <path d="M248.379,82.669v13.753c0,1.2,0.048,2.496,0.096,3.288h-2.64l-0.12-1.849h-0.048c-0.696,1.297-2.112,2.112-3.816,2.112
      c-2.784,0-4.993-2.376-4.993-5.977c-0.024-3.912,2.424-6.24,5.233-6.24c1.608,0,2.76,0.672,3.288,1.536h0.048v-6.624H248.379z
       M245.427,92.894c0-0.24-0.024-0.528-0.072-0.769c-0.264-1.151-1.2-2.088-2.544-2.088c-1.896,0-2.952,1.68-2.952,3.864
      c0,2.137,1.056,3.696,2.928,3.696c1.2,0,2.256-0.816,2.544-2.088c0.072-0.265,0.096-0.552,0.096-0.864V92.894z"/>
   <path d="M259.563,83.532v9.434c0,3.168,1.319,4.632,3.312,4.632c2.137,0,3.408-1.464,3.408-4.632v-9.434h2.953v9.241
      c0,4.992-2.568,7.2-6.457,7.2c-3.744,0-6.169-2.088-6.169-7.177v-9.265H259.563z"/>
   <path d="M272.498,91.501c0-1.344-0.023-2.472-0.096-3.48h2.592l0.145,1.753h0.071c0.505-0.912,1.776-2.017,3.721-2.017
      c2.04,0,4.152,1.32,4.152,5.017v6.937h-2.952v-6.601c0-1.68-0.624-2.952-2.232-2.952c-1.176,0-1.992,0.84-2.304,1.729
      c-0.097,0.264-0.12,0.624-0.12,0.96v6.864h-2.977V91.501z"/>
   <path d="M289.37,84.757c0,0.888-0.648,1.584-1.681,1.584c-0.983,0-1.632-0.696-1.632-1.584c0-0.912,0.672-1.608,1.656-1.608
      C288.722,83.148,289.346,83.845,289.37,84.757z M286.226,99.71V88.021h2.977V99.71H286.226z"/>
   <path d="M294.241,88.021l1.896,5.929c0.336,1.032,0.576,1.969,0.792,2.929h0.072c0.216-0.96,0.479-1.872,0.792-2.929l1.848-5.929
      h3.12l-4.464,11.689h-2.904l-4.345-11.689H294.241z"/>
   <path d="M306.361,94.693c0.072,2.112,1.729,3.024,3.601,3.024c1.368,0,2.353-0.192,3.24-0.528l0.433,2.04
      c-1.009,0.408-2.4,0.721-4.081,0.721c-3.792,0-6.024-2.328-6.024-5.904c0-3.24,1.969-6.289,5.713-6.289
      c3.792,0,5.04,3.12,5.04,5.688c0,0.552-0.048,0.984-0.096,1.248H306.361z M311.498,92.629c0.024-1.08-0.456-2.855-2.424-2.855
      c-1.824,0-2.593,1.656-2.713,2.855H311.498z"/>
   <path d="M316.657,91.789c0-1.584-0.023-2.712-0.096-3.769h2.568l0.096,2.232h0.096c0.576-1.656,1.944-2.496,3.192-2.496
      c0.288,0,0.456,0.024,0.696,0.072v2.784c-0.24-0.048-0.504-0.096-0.864-0.096c-1.416,0-2.376,0.912-2.64,2.231
      c-0.049,0.265-0.097,0.576-0.097,0.912v6.049h-2.952V91.789z"/>
   <path d="M325.058,96.998c0.672,0.408,1.944,0.84,3,0.84c1.296,0,1.872-0.528,1.872-1.296c0-0.792-0.48-1.2-1.92-1.704
      c-2.28-0.792-3.24-2.041-3.217-3.408c0-2.064,1.704-3.673,4.417-3.673c1.296,0,2.424,0.336,3.096,0.696l-0.576,2.088
      c-0.504-0.288-1.439-0.672-2.472-0.672c-1.057,0-1.632,0.504-1.632,1.224c0,0.744,0.552,1.104,2.04,1.633
      c2.112,0.768,3.096,1.848,3.12,3.576c0,2.112-1.656,3.648-4.753,3.648c-1.416,0-2.688-0.336-3.552-0.816L325.058,96.998z"/>
   <path d="M338.354,84.757c0,0.888-0.648,1.584-1.681,1.584c-0.983,0-1.632-0.696-1.632-1.584c0-0.912,0.672-1.608,1.656-1.608
      C337.705,83.148,338.329,83.845,338.354,84.757z M335.209,99.71V88.021h2.977V99.71H335.209z"/>
   <path d="M344.737,84.685v3.336h2.808v2.209h-2.808v5.16c0,1.416,0.384,2.16,1.512,2.16c0.504,0,0.888-0.072,1.152-0.144
      l0.048,2.256c-0.432,0.168-1.2,0.288-2.136,0.288c-1.08,0-1.992-0.36-2.545-0.96c-0.624-0.673-0.912-1.729-0.912-3.265v-5.496
      h-1.68v-2.209h1.68v-2.64L344.737,84.685z"/>
   <path d="M351.77,88.021l2.112,6.265c0.239,0.721,0.479,1.608,0.647,2.28h0.072c0.192-0.672,0.408-1.536,0.624-2.304l1.824-6.241
      h3.168l-2.928,7.969c-1.608,4.369-2.688,6.313-4.081,7.513c-1.151,1.032-2.352,1.416-3.096,1.513l-0.672-2.496
      c0.504-0.12,1.128-0.385,1.728-0.816c0.553-0.36,1.2-1.056,1.608-1.849c0.12-0.216,0.192-0.384,0.192-0.527
      c0-0.12-0.024-0.288-0.168-0.576l-4.272-10.729H351.77z"/>
</g>
</svg>
